<svg width="1242" height="360" viewBox="0 0 1242 360" fill="none" xmlns="http://www.w3.org/2000/svg">
<g clip-path="url(#clip0_5_463)">
<path d="M160.867 222.122C172.55 222.122 181.537 213.134 181.537 201.451V160.112C181.537 148.428 172.55 139.441 160.867 139.441H10.7843C5.39218 139.441 0 143.935 0 149.327V211.337C0 216.729 4.49348 222.122 10.7843 222.122H160.867ZM49.4284 263.462V99H192.321C215.688 99 234.56 116.974 234.56 140.34V222.122C234.56 244.589 215.688 263.462 192.321 263.462H49.4284Z" fill="white"/>
<path d="M255.234 263.462V99H507.768C531.135 99 550.007 116.974 550.007 140.34V263.462H497.882V161.01C497.882 149.327 488.896 140.34 477.213 140.34H440.366C434.075 140.34 429.581 144.833 429.581 150.226V263.462H377.457V150.226C377.457 144.833 372.963 140.34 366.673 140.34H319.042C313.65 140.34 308.258 144.833 308.258 150.226V263.462H255.234Z" fill="white"/>
<path d="M707.278 222.122C718.961 222.122 727.949 213.134 727.949 201.451V160.112C727.949 148.428 718.961 139.441 707.278 139.441H644.369C632.686 139.441 623.7 148.428 623.7 160.112V201.451C623.7 213.134 632.686 222.122 644.369 222.122H707.278ZM612.016 263.462C588.65 263.462 569.777 245.488 569.777 222.122V140.34C569.777 117.873 588.65 99 612.016 99H738.733C762.099 99 780.971 116.974 780.971 140.34V222.122C780.971 244.589 762.099 263.462 738.733 263.462H612.016Z" fill="white"/>
<path d="M937.337 222.122C949.019 222.122 958.01 213.134 958.01 201.451V160.112C958.01 148.428 949.019 139.441 937.337 139.441H874.429C862.746 139.441 853.759 148.428 853.759 160.112V201.451C853.759 213.134 862.746 222.122 874.429 222.122H937.337ZM842.974 263.462C819.608 263.462 800.736 245.488 800.736 222.122V140.34C800.736 117.873 819.608 99 842.974 99H969.692C993.056 99 1011.93 116.974 1011.93 140.34V222.122C1011.93 244.589 993.056 263.462 969.692 263.462H842.974Z" fill="white"/>
<path d="M1168.31 222.122C1180 222.122 1188.99 213.134 1188.99 201.451V160.112C1188.99 148.428 1180 139.441 1168.31 139.441H1094.62C1089.23 139.441 1083.83 143.935 1083.83 149.327V211.337C1083.83 216.729 1088.33 222.122 1094.62 222.122H1168.31ZM1031.71 263.462V99H1199.77C1223.13 99 1242.01 116.974 1242.01 140.34V222.122C1242.01 244.589 1223.13 263.462 1199.77 263.462H1031.71Z" fill="white"/>
</g>
<defs>
<clipPath id="clip0_5_463">
<rect width="1242" height="360" fill="white"/>
</clipPath>
</defs>
</svg>
